<?xml version="1.0" encoding="UTF-8" standalone="no" ?>
<!DOCTYPE svg PUBLIC "-//W3C//DTD SVG 1.1//EN" "http://www.w3.org/Graphics/SVG/1.1/DTD/svg11.dtd">
<svg xmlns="http://www.w3.org/2000/svg" xmlns:xlink="http://www.w3.org/1999/xlink" version="1.1" width="200" height="150" viewBox="0 0 200 150" xml:space="preserve">
<desc>Created with Fabric.js 5.2.4</desc>
<defs>
</defs>
<rect x="0" y="0" width="100%" height="100%" fill="transparent"></rect>
<g transform="matrix(1 0 0 1 100 75)" id="5a5826be-c852-4539-b5c9-1c3b9073903f"  >
<rect style="stroke: none; stroke-width: 1; stroke-dasharray: none; stroke-linecap: butt; stroke-dashoffset: 0; stroke-linejoin: miter; stroke-miterlimit: 4; fill: rgb(255,255,255); fill-rule: nonzero; opacity: 1; visibility: hidden;" vector-effect="non-scaling-stroke"  x="-100" y="-75" rx="0" ry="0" width="200" height="150" />
</g>
<g transform="matrix(0 0 0 0 0 0)" id="a9ca567d-401e-48aa-b4e5-793b866c6b7f"  >
</g>
<g transform="matrix(0.45 0 0 0.45 101.06 104.17)"  >
<path style="stroke: rgb(177,151,119); stroke-width: 1; stroke-dasharray: none; stroke-linecap: square; stroke-dashoffset: 0; stroke-linejoin: miter; stroke-miterlimit: 4; fill: none; fill-rule: nonzero; opacity: 1;" vector-effect="non-scaling-stroke"  transform=" translate(-150.15, -2)" d="M 1.997784 1.99912 L 298.30664 2.001521" stroke-linecap="round" />
</g>
<g transform="matrix(0.43 0.13 -0.13 0.43 89.72 67.61)"  >
<path style="stroke: rgb(177,151,119); stroke-width: 1; stroke-dasharray: none; stroke-linecap: square; stroke-dashoffset: 0; stroke-linejoin: miter; stroke-miterlimit: 4; fill: none; fill-rule: nonzero; opacity: 1;" vector-effect="non-scaling-stroke"  transform=" translate(-130.29, -2)" d="M 2.001282 2.000059 L 258.57022 1.998129" stroke-linecap="round" />
</g>
<g transform="matrix(0.43 -0.12 0.12 0.43 114.3 44.04)"  >
<path style="stroke: rgb(177,151,119); stroke-width: 1; stroke-dasharray: none; stroke-linecap: square; stroke-dashoffset: 0; stroke-linejoin: miter; stroke-miterlimit: 4; fill: none; fill-rule: nonzero; opacity: 1;" vector-effect="non-scaling-stroke"  transform=" translate(-126.6, -2)" d="M 2.000197 1.997593 L 251.20216 2.000238" stroke-linecap="round" />
</g>
<g transform="matrix(0.01 0.45 -0.45 0.01 60.43 80.91)"  >
<path style="stroke: rgb(177,151,119); stroke-width: 1; stroke-dasharray: none; stroke-linecap: square; stroke-dashoffset: 0; stroke-linejoin: miter; stroke-miterlimit: 4; fill: none; fill-rule: nonzero; opacity: 1;" vector-effect="non-scaling-stroke"  transform=" translate(-51.49, -2)" d="M 1.997887 1.998253 L 100.97559 1.99897" stroke-linecap="round" />
</g>
<g transform="matrix(0 0.45 -0.45 0 34.31 77.71)"  >
<path style="stroke: rgb(177,151,119); stroke-width: 1; stroke-dasharray: none; stroke-linecap: square; stroke-dashoffset: 0; stroke-linejoin: miter; stroke-miterlimit: 4; fill: none; fill-rule: nonzero; opacity: 1;" vector-effect="non-scaling-stroke"  transform=" translate(-59.11, -2)" d="M 1.998179 2.001323 L 116.215294 2.001323" stroke-linecap="round" />
</g>
<g transform="matrix(0 0.45 -0.45 0 145.81 94.1)"  >
<path style="stroke: rgb(177,151,119); stroke-width: 1; stroke-dasharray: none; stroke-linecap: square; stroke-dashoffset: 0; stroke-linejoin: miter; stroke-miterlimit: 4; fill: none; fill-rule: nonzero; opacity: 1;" vector-effect="non-scaling-stroke"  transform=" translate(-22.6, -2)" d="M 1.999962 1.998947 L 43.206 1.998653" stroke-linecap="round" />
</g>
<g transform="matrix(0 0.45 -0.45 0 168.26 66.58)"  >
<path style="stroke: rgb(177,151,119); stroke-width: 1; stroke-dasharray: none; stroke-linecap: square; stroke-dashoffset: 0; stroke-linejoin: miter; stroke-miterlimit: 4; fill: none; fill-rule: nonzero; opacity: 1;" vector-effect="non-scaling-stroke"  transform=" translate(-84.72, -2)" d="M 2.001495 1.998362 L 167.43123 1.998196" stroke-linecap="round" />
</g>
<g transform="matrix(0 0.45 -0.45 0 72.22 54.1)"  >
<path style="stroke: rgb(177,151,119); stroke-width: 1; stroke-dasharray: none; stroke-linecap: square; stroke-dashoffset: 0; stroke-linejoin: miter; stroke-miterlimit: 4; fill: none; fill-rule: nonzero; opacity: 1;" vector-effect="non-scaling-stroke"  transform=" translate(-113.09, -2)" d="M 1.99993 2.002129 L 224.17072 1.998201" stroke-linecap="round" />
</g>
<g transform="matrix(0 0.45 -0.45 0 132.56 71.1)"  >
<path style="stroke: rgb(177,151,119); stroke-width: 1; stroke-dasharray: none; stroke-linecap: square; stroke-dashoffset: 0; stroke-linejoin: miter; stroke-miterlimit: 4; fill: none; fill-rule: nonzero; opacity: 1;" vector-effect="non-scaling-stroke"  transform=" translate(-73.38, -2)" d="M 2.000078 2.000187 L 144.76208 2.000187" stroke-linecap="round" />
</g>
<g transform="matrix(0.39 0.23 -0.23 0.39 101.95 21.34)"  >
<path style="stroke: rgb(177,151,119); stroke-width: 1; stroke-dasharray: none; stroke-linecap: square; stroke-dashoffset: 0; stroke-linejoin: miter; stroke-miterlimit: 4; fill: none; fill-rule: nonzero; opacity: 1;" vector-effect="non-scaling-stroke"  transform=" translate(-78.52, -2)" d="M 2.000793 1.998364 L 155.04477 2.000677" stroke-linecap="round" />
</g>
</svg>