<?xml version="1.0" encoding="UTF-8" standalone="no" ?>
<!DOCTYPE svg PUBLIC "-//W3C//DTD SVG 1.1//EN" "http://www.w3.org/Graphics/SVG/1.1/DTD/svg11.dtd">
<svg xmlns="http://www.w3.org/2000/svg" xmlns:xlink="http://www.w3.org/1999/xlink" version="1.1" width="1080" height="1080" viewBox="0 0 1080 1080" xml:space="preserve">
<desc>Created with Fabric.js 5.2.4</desc>
<defs>
</defs>
<g transform="matrix(1 0 0 1 540 540)" id="5a5826be-c852-4539-b5c9-1c3b9073903f"  >
<rect style="stroke: none; stroke-width: 1; stroke-dasharray: none; stroke-linecap: butt; stroke-dashoffset: 0; stroke-linejoin: miter; stroke-miterlimit: 4; fill: rgb(255,255,255); fill-rule: nonzero; opacity: 1; visibility: hidden;" vector-effect="non-scaling-stroke"  x="-540" y="-540" rx="0" ry="0" width="1080" height="1080" />
</g>
<g transform="matrix(1 0 0 1 540 540)" id="a9ca567d-401e-48aa-b4e5-793b866c6b7f"  >
</g>
<g transform="matrix(9.86 0 0 9.86 540 540)"  >
<g style="" vector-effect="non-scaling-stroke"   >
		<g transform="matrix(0.09 0 0 0.09 0.06 7.27)"  >
<path style="stroke: rgb(177,151,119); stroke-width: 4; stroke-dasharray: none; stroke-linecap: square; stroke-dashoffset: 0; stroke-linejoin: miter; stroke-miterlimit: 4; fill: none; fill-rule: nonzero; opacity: 1;" vector-effect="non-scaling-stroke"  transform=" translate(-150.15, -2)" d="M 1.997784 1.99912 L 298.30664 2.001521" stroke-linecap="round" />
</g>
		<g transform="matrix(0.09 0.03 -0.03 0.09 -2.27 -0.1)"  >
<path style="stroke: rgb(177,151,119); stroke-width: 4; stroke-dasharray: none; stroke-linecap: square; stroke-dashoffset: 0; stroke-linejoin: miter; stroke-miterlimit: 4; fill: none; fill-rule: nonzero; opacity: 1;" vector-effect="non-scaling-stroke"  transform=" translate(-130.29, -2)" d="M 2.001282 2.000059 L 258.57022 1.998129" stroke-linecap="round" />
</g>
		<g transform="matrix(0.09 -0.02 0.02 0.09 2.63 -5.06)"  >
<path style="stroke: rgb(177,151,119); stroke-width: 4; stroke-dasharray: none; stroke-linecap: square; stroke-dashoffset: 0; stroke-linejoin: miter; stroke-miterlimit: 4; fill: none; fill-rule: nonzero; opacity: 1;" vector-effect="non-scaling-stroke"  transform=" translate(-126.6, -2)" d="M 2.000197 1.997593 L 251.20216 2.000238" stroke-linecap="round" />
</g>
		<g transform="matrix(0 0.09 -0.09 0 -8.36 2.51)"  >
<path style="stroke: rgb(177,151,119); stroke-width: 4; stroke-dasharray: none; stroke-linecap: square; stroke-dashoffset: 0; stroke-linejoin: miter; stroke-miterlimit: 4; fill: none; fill-rule: nonzero; opacity: 1;" vector-effect="non-scaling-stroke"  transform=" translate(-51.49, -2)" d="M 1.997887 1.998253 L 100.97559 1.99897" stroke-linecap="round" />
</g>
		<g transform="matrix(0 0.09 -0.09 0 -13.48 1.85)"  >
<path style="stroke: rgb(177,151,119); stroke-width: 4; stroke-dasharray: none; stroke-linecap: square; stroke-dashoffset: 0; stroke-linejoin: miter; stroke-miterlimit: 4; fill: none; fill-rule: nonzero; opacity: 1;" vector-effect="non-scaling-stroke"  transform=" translate(-59.11, -2)" d="M 1.998179 2.001323 L 116.215294 2.001323" stroke-linecap="round" />
</g>
		<g transform="matrix(0 0.09 -0.09 0 8.99 5.21)"  >
<path style="stroke: rgb(177,151,119); stroke-width: 4; stroke-dasharray: none; stroke-linecap: square; stroke-dashoffset: 0; stroke-linejoin: miter; stroke-miterlimit: 4; fill: none; fill-rule: nonzero; opacity: 1;" vector-effect="non-scaling-stroke"  transform=" translate(-22.6, -2)" d="M 1.999962 1.998947 L 43.206 1.998653" stroke-linecap="round" />
</g>
		<g transform="matrix(0 0.09 -0.09 0 13.8 -0.42)"  >
<path style="stroke: rgb(177,151,119); stroke-width: 4; stroke-dasharray: none; stroke-linecap: square; stroke-dashoffset: 0; stroke-linejoin: miter; stroke-miterlimit: 4; fill: none; fill-rule: nonzero; opacity: 1;" vector-effect="non-scaling-stroke"  transform=" translate(-84.72, -2)" d="M 2.001495 1.998362 L 167.43123 1.998196" stroke-linecap="round" />
</g>
		<g transform="matrix(0 0.09 -0.09 0 -5.76 -3.14)"  >
<path style="stroke: rgb(177,151,119); stroke-width: 4; stroke-dasharray: none; stroke-linecap: square; stroke-dashoffset: 0; stroke-linejoin: miter; stroke-miterlimit: 4; fill: none; fill-rule: nonzero; opacity: 1;" vector-effect="non-scaling-stroke"  transform=" translate(-113.09, -2)" d="M 1.99993 2.002129 L 224.17072 1.998201" stroke-linecap="round" />
</g>
		<g transform="matrix(0 0.09 -0.09 0 6.53 0.5)"  >
<path style="stroke: rgb(177,151,119); stroke-width: 4; stroke-dasharray: none; stroke-linecap: square; stroke-dashoffset: 0; stroke-linejoin: miter; stroke-miterlimit: 4; fill: none; fill-rule: nonzero; opacity: 1;" vector-effect="non-scaling-stroke"  transform=" translate(-73.38, -2)" d="M 2.000078 2.000187 L 144.76208 2.000187" stroke-linecap="round" />
</g>
		<g transform="matrix(0.08 0.05 -0.05 0.08 0.31 -9.7)"  >
<path style="stroke: rgb(177,151,119); stroke-width: 4; stroke-dasharray: none; stroke-linecap: square; stroke-dashoffset: 0; stroke-linejoin: miter; stroke-miterlimit: 4; fill: none; fill-rule: nonzero; opacity: 1;" vector-effect="non-scaling-stroke"  transform=" translate(-78.52, -2)" d="M 2.000793 1.998364 L 155.04477 2.000677" stroke-linecap="round" />
</g>
		<g transform="matrix(0.12 0 0 0.12 -8.32 11.37)"  >
<path style="stroke: none; stroke-width: 1; stroke-dasharray: none; stroke-linecap: butt; stroke-dashoffset: 0; stroke-linejoin: miter; stroke-miterlimit: 4; fill: rgb(255,255,255); fill-rule: nonzero; opacity: 1;" vector-effect="non-scaling-stroke"  transform=" translate(-10.71, 11.88)" d="M 21.015625 0 L 17.09375 0 L 16.53125 -2.65625 L 15.5 -5.953125 L 10.46875 -6.0625 L 5.921875 -5.953125 L 4.8125 -2.84375 L 4.21875 0 L 0.40625 0 L 8.875 -23.75 L 13.359375 -23.75 L 21.015625 0 z M 14.546875 -9.0625 L 11.140625 -20.015625 L 10.875 -20.015625 L 7 -9.0625 L 10.734375 -8.984375 z" stroke-linecap="round" />
</g>
		<g transform="matrix(0.12 0 0 0.12 -5.14 11.63)"  >
<path style="stroke: none; stroke-width: 1; stroke-dasharray: none; stroke-linecap: butt; stroke-dashoffset: 0; stroke-linejoin: miter; stroke-miterlimit: 4; fill: rgb(255,255,255); fill-rule: nonzero; opacity: 1;" vector-effect="non-scaling-stroke"  transform=" translate(-8.88, 9.75)" d="M 10.171875 -17.3125 L 10.171875 -11.03125 L 16.46875 -11.03125 L 16.71875 -10.765625 L 16.53125 -8.4375 L 10.171875 -8.4375 L 10.171875 -2.078125 L 7.875 -1.890625 L 7.578125 -2.140625 L 7.578125 -8.4375 L 1.296875 -8.4375 L 1.03125 -8.6875 L 1.21875 -11.03125 L 7.578125 -11.03125 L 7.578125 -17.390625 L 9.921875 -17.609375 L 10.171875 -17.3125 z" stroke-linecap="round" />
</g>
		<g transform="matrix(0.12 0 0 0.12 -2.27 11.37)"  >
<path style="stroke: none; stroke-width: 1; stroke-dasharray: none; stroke-linecap: butt; stroke-dashoffset: 0; stroke-linejoin: miter; stroke-miterlimit: 4; fill: rgb(255,255,255); fill-rule: nonzero; opacity: 1;" vector-effect="non-scaling-stroke"  transform=" translate(-10.71, 11.88)" d="M 21.015625 0 L 17.09375 0 L 16.53125 -2.65625 L 15.5 -5.953125 L 10.46875 -6.0625 L 5.921875 -5.953125 L 4.8125 -2.84375 L 4.21875 0 L 0.40625 0 L 8.875 -23.75 L 13.359375 -23.75 L 21.015625 0 z M 14.546875 -9.0625 L 11.140625 -20.015625 L 10.875 -20.015625 L 7 -9.0625 L 10.734375 -8.984375 z" stroke-linecap="round" />
</g>
		<g transform="matrix(0.12 0 0 0.12 2.39 11.37)"  >
<path style="stroke: none; stroke-width: 1; stroke-dasharray: none; stroke-linecap: butt; stroke-dashoffset: 0; stroke-linejoin: miter; stroke-miterlimit: 4; fill: rgb(255,255,255); fill-rule: nonzero; opacity: 1;" vector-effect="non-scaling-stroke"  transform=" translate(-11.18, 11.83)" d="M 14.28125 -12.359375 C 15.9375 -12.015625 17.164062 -11.363281 17.96875 -10.40625 C 18.769531 -9.457031 19.171875 -8.207031 19.171875 -6.65625 C 19.171875 -2.125 15.773438 0.140625 8.984375 0.140625 C 6.640625 0.140625 4.71875 0.09375 3.21875 0 L 3.21875 0 L 3.1875 0 L 3.4375 -7.140625 L 3.1875 -23.75 L 10.578125 -23.796875 C 12.867188 -23.796875 14.648438 -23.296875 15.921875 -22.296875 C 17.191406 -21.296875 17.828125 -19.84375 17.828125 -17.9375 C 17.828125 -16.613281 17.519531 -15.472656 16.90625 -14.515625 C 16.289062 -13.566406 15.414062 -12.847656 14.28125 -12.359375 z M 13.90625 -17.5 C 13.90625 -18.6875 13.570312 -19.535156 12.90625 -20.046875 C 12.238281 -20.566406 11.117188 -20.828125 9.546875 -20.828125 L 9.546875 -20.828125 L 7.03125 -20.828125 L 6.921875 -13.546875 L 10.734375 -13.4375 C 11.816406 -13.707031 12.613281 -14.164062 13.125 -14.8125 C 13.644531 -15.46875 13.90625 -16.363281 13.90625 -17.5 z M 9.625 -2.8125 C 11.445312 -2.8125 12.847656 -3.15625 13.828125 -3.84375 C 14.816406 -4.539062 15.3125 -5.550781 15.3125 -6.875 C 15.3125 -9 13.945312 -10.25 11.21875 -10.625 L 11.21875 -10.625 L 6.875 -10.578125 L 6.84375 -7.46875 L 6.953125 -2.921875 C 7.921875 -2.847656 8.8125 -2.8125 9.625 -2.8125 z" stroke-linecap="round" />
</g>
		<g transform="matrix(0.12 0 0 0.12 5.44 11.37)"  >
<path style="stroke: none; stroke-width: 1; stroke-dasharray: none; stroke-linecap: butt; stroke-dashoffset: 0; stroke-linejoin: miter; stroke-miterlimit: 4; fill: rgb(255,255,255); fill-rule: nonzero; opacity: 1;" vector-effect="non-scaling-stroke"  transform=" translate(-10.71, 11.88)" d="M 21.015625 0 L 17.09375 0 L 16.53125 -2.65625 L 15.5 -5.953125 L 10.46875 -6.0625 L 5.921875 -5.953125 L 4.8125 -2.84375 L 4.21875 0 L 0.40625 0 L 8.875 -23.75 L 13.359375 -23.75 L 21.015625 0 z M 14.546875 -9.0625 L 11.140625 -20.015625 L 10.875 -20.015625 L 7 -9.0625 L 10.734375 -8.984375 z" stroke-linecap="round" />
</g>
		<g transform="matrix(0.12 0 0 0.12 8.76 11.45)"  >
<path style="stroke: none; stroke-width: 1; stroke-dasharray: none; stroke-linecap: butt; stroke-dashoffset: 0; stroke-linejoin: miter; stroke-miterlimit: 4; fill: rgb(255,255,255); fill-rule: nonzero; opacity: 1;" vector-effect="non-scaling-stroke"  transform=" translate(-11.69, 11.73)" d="M 20.71875 -11.6875 L 20.6875 -8.875 C 20.726562 -5.96875 19.9375 -3.710938 18.3125 -2.109375 C 16.6875 -0.503906 14.378906 0.296875 11.390625 0.296875 C 8.503906 0.296875 6.296875 -0.472656 4.765625 -2.015625 C 3.242188 -3.554688 2.503906 -5.742188 2.546875 -8.578125 L 2.546875 -8.578125 L 2.625 -11.875 L 2.546875 -23.75 L 6.328125 -23.75 L 6.171875 -9.109375 C 6.148438 -7.035156 6.59375 -5.488281 7.5 -4.46875 C 8.414062 -3.457031 9.800781 -2.953125 11.65625 -2.953125 C 15.351562 -2.953125 17.191406 -4.878906 17.171875 -8.734375 L 17.171875 -8.734375 L 16.984375 -23.75 L 20.828125 -23.75 L 20.71875 -11.6875 z" stroke-linecap="round" />
</g>
		<g transform="matrix(0.12 0 0 0.12 -10.34 14.88)"  >
<path style="stroke: none; stroke-width: 1; stroke-dasharray: none; stroke-linecap: butt; stroke-dashoffset: 0; stroke-linejoin: miter; stroke-miterlimit: 4; fill: rgb(255,255,255); fill-rule: nonzero; opacity: 1;" vector-effect="non-scaling-stroke"  transform=" translate(-5.02, 4.58)" d="M 0.714844 0 L 6.121094 0 C 8.085938 0 9.320312 -1 9.320312 -2.558594 C 9.320312 -3.664062 8.65625 -4.496094 7.589844 -4.730469 L 7.589844 -4.730469 L 7.589844 -4.742188 C 8.472656 -4.992188 9.046875 -5.730469 9.046875 -6.695312 C 9.046875 -8.214844 7.914062 -9.164062 6.121094 -9.164062 L 6.121094 -9.164062 L 0.714844 -9.164062 L 0.714844 0 z M 1.792969 -5.199219 L 1.792969 -8.214844 L 6.003906 -8.214844 C 7.214844 -8.214844 7.96875 -7.640625 7.96875 -6.707031 C 7.96875 -5.769531 7.214844 -5.199219 6.003906 -5.199219 z M 1.792969 -0.949219 L 1.792969 -4.261719 L 5.980469 -4.261719 C 7.371094 -4.261719 8.242188 -3.625 8.242188 -2.625 C 8.242188 -1.585938 7.371094 -0.949219 5.980469 -0.949219 z" stroke-linecap="round" />
</g>
		<g transform="matrix(0.12 0 0 0.12 -8.99 14.9)"  >
<path style="stroke: none; stroke-width: 1; stroke-dasharray: none; stroke-linecap: butt; stroke-dashoffset: 0; stroke-linejoin: miter; stroke-miterlimit: 4; fill: rgb(255,255,255); fill-rule: nonzero; opacity: 1;" vector-effect="non-scaling-stroke"  transform=" translate(-4.95, 4.42)" d="M 4.953125 0.324219 C 7.539062 0.324219 9.320312 -1.246094 9.320312 -3.808594 L 9.320312 -3.808594 L 9.320312 -9.164062 L 8.242188 -9.164062 L 8.242188 -3.796875 C 8.242188 -1.808594 6.925781 -0.648438 4.964844 -0.648438 C 2.988281 -0.648438 1.675781 -1.871094 1.675781 -3.796875 L 1.675781 -3.796875 L 1.675781 -9.164062 L 0.585938 -9.164062 L 0.585938 -3.808594 C 0.585938 -1.246094 2.367188 0.324219 4.953125 0.324219 z" stroke-linecap="round" />
</g>
		<g transform="matrix(0.12 0 0 0.12 -8.05 14.88)"  >
<path style="stroke: none; stroke-width: 1; stroke-dasharray: none; stroke-linecap: butt; stroke-dashoffset: 0; stroke-linejoin: miter; stroke-miterlimit: 4; fill: rgb(255,255,255); fill-rule: nonzero; opacity: 1;" vector-effect="non-scaling-stroke"  transform=" translate(-1.25, 4.58)" d="M 0.714844 0 L 1.792969 0 L 1.792969 -9.164062 L 0.714844 -9.164062 L 0.714844 0 z" stroke-linecap="round" />
</g>
		<g transform="matrix(0.12 0 0 0.12 -7.24 14.88)"  >
<path style="stroke: none; stroke-width: 1; stroke-dasharray: none; stroke-linecap: butt; stroke-dashoffset: 0; stroke-linejoin: miter; stroke-miterlimit: 4; fill: rgb(255,255,255); fill-rule: nonzero; opacity: 1;" vector-effect="non-scaling-stroke"  transform=" translate(-3.93, 4.58)" d="M 0.714844 0 L 7.136719 0 L 7.136719 -0.960938 L 1.792969 -0.960938 L 1.792969 -9.164062 L 0.714844 -9.164062 L 0.714844 0 z" stroke-linecap="round" />
</g>
		<g transform="matrix(0.12 0 0 0.12 -6 14.88)"  >
<path style="stroke: none; stroke-width: 1; stroke-dasharray: none; stroke-linecap: butt; stroke-dashoffset: 0; stroke-linejoin: miter; stroke-miterlimit: 4; fill: rgb(255,255,255); fill-rule: nonzero; opacity: 1;" vector-effect="non-scaling-stroke"  transform=" translate(-5.43, 4.58)" d="M 0.714844 0 L 5.082031 0 C 8.34375 0 10.152344 -1.636719 10.152344 -4.574219 C 10.152344 -7.527344 8.34375 -9.164062 5.082031 -9.164062 L 5.082031 -9.164062 L 0.714844 -9.164062 L 0.714844 0 z M 1.792969 -0.960938 L 1.792969 -8.203125 L 5.082031 -8.203125 C 7.640625 -8.203125 9.070312 -6.914062 9.070312 -4.574219 C 9.070312 -2.25 7.640625 -0.960938 5.082031 -0.960938 z" stroke-linecap="round" />
</g>
		<g transform="matrix(0.12 0 0 0.12 -5.02 14.88)"  >
<path style="stroke: none; stroke-width: 1; stroke-dasharray: none; stroke-linecap: butt; stroke-dashoffset: 0; stroke-linejoin: miter; stroke-miterlimit: 4; fill: rgb(255,255,255); fill-rule: nonzero; opacity: 1;" vector-effect="non-scaling-stroke"  transform=" translate(-1.25, 4.58)" d="M 0.714844 0 L 1.792969 0 L 1.792969 -9.164062 L 0.714844 -9.164062 L 0.714844 0 z" stroke-linecap="round" />
</g>
		<g transform="matrix(0.12 0 0 0.12 -4.09 14.88)"  >
<path style="stroke: none; stroke-width: 1; stroke-dasharray: none; stroke-linecap: butt; stroke-dashoffset: 0; stroke-linejoin: miter; stroke-miterlimit: 4; fill: rgb(255,255,255); fill-rule: nonzero; opacity: 1;" vector-effect="non-scaling-stroke"  transform=" translate(-4.99, 4.58)" d="M 0.714844 0 L 1.792969 0 L 1.792969 -7.914062 L 1.820312 -7.914062 L 7.824219 0 L 9.265625 0 L 9.265625 -9.164062 L 8.175781 -9.164062 L 8.175781 -1.246094 L 8.164062 -1.246094 L 2.15625 -9.164062 L 0.714844 -9.164062 L 0.714844 0 z" stroke-linecap="round" />
</g>
		<g transform="matrix(0.12 0 0 0.12 -2.57 14.88)"  >
<path style="stroke: none; stroke-width: 1; stroke-dasharray: none; stroke-linecap: butt; stroke-dashoffset: 0; stroke-linejoin: miter; stroke-miterlimit: 4; fill: rgb(255,255,255); fill-rule: nonzero; opacity: 1;" vector-effect="non-scaling-stroke"  transform=" translate(-5.97, 4.58)" d="M 5.953125 0.324219 C 7.941406 0.324219 9.539062 -0.53125 10.410156 -1.910156 L 10.410156 -1.910156 L 10.425781 -1.910156 L 10.539062 0 L 11.449219 0 L 11.449219 -5.054688 L 4.105469 -5.054688 L 4.105469 -4.121094 L 10.386719 -4.121094 C 10.386719 -2.144531 8.472656 -0.636719 6.082031 -0.636719 C 3.46875 -0.636719 1.574219 -2.300781 1.574219 -4.574219 C 1.574219 -6.902344 3.351562 -8.539062 5.847656 -8.527344 C 7.460938 -8.527344 8.957031 -7.667969 9.371094 -6.445312 L 9.371094 -6.445312 L 10.371094 -6.773438 C 9.839844 -8.355469 7.914062 -9.488281 5.847656 -9.488281 C 2.742188 -9.488281 0.492188 -7.421875 0.492188 -4.574219 C 0.492188 -1.742188 2.78125 0.324219 5.953125 0.324219 z" stroke-linecap="round" />
</g>
		<g transform="matrix(0.12 0 0 0.12 -0.48 14.88)"  >
<path style="stroke: none; stroke-width: 1; stroke-dasharray: none; stroke-linecap: butt; stroke-dashoffset: 0; stroke-linejoin: miter; stroke-miterlimit: 4; fill: rgb(255,255,255); fill-rule: nonzero; opacity: 1;" vector-effect="non-scaling-stroke"  transform=" translate(-4.36, 4.58)" d="M 3.820312 0 L 4.898438 0 L 4.898438 -8.203125 L 8.617188 -8.203125 L 8.617188 -9.164062 L 0.105469 -9.164062 L 0.105469 -8.203125 L 3.820312 -8.203125 L 3.820312 0 z" stroke-linecap="round" />
</g>
		<g transform="matrix(0.12 0 0 0.12 0.83 14.88)"  >
<path style="stroke: none; stroke-width: 1; stroke-dasharray: none; stroke-linecap: butt; stroke-dashoffset: 0; stroke-linejoin: miter; stroke-miterlimit: 4; fill: rgb(255,255,255); fill-rule: nonzero; opacity: 1;" vector-effect="non-scaling-stroke"  transform=" translate(-4.98, 4.58)" d="M 0.714844 0 L 1.792969 0 L 1.792969 -4.316406 L 8.164062 -4.316406 L 8.164062 0 L 9.242188 0 L 9.242188 -9.164062 L 8.164062 -9.164062 L 8.164062 -5.265625 L 1.792969 -5.265625 L 1.792969 -9.164062 L 0.714844 -9.164062 L 0.714844 0 z" stroke-linecap="round" />
</g>
		<g transform="matrix(0.12 0 0 0.12 2.18 14.88)"  >
<path style="stroke: none; stroke-width: 1; stroke-dasharray: none; stroke-linecap: butt; stroke-dashoffset: 0; stroke-linejoin: miter; stroke-miterlimit: 4; fill: rgb(255,255,255); fill-rule: nonzero; opacity: 1;" vector-effect="non-scaling-stroke"  transform=" translate(-4.56, 4.58)" d="M 0.714844 0 L 8.410156 0 L 8.410156 -0.960938 L 1.769531 -0.960938 L 1.769531 -4.261719 L 7.757812 -4.261719 L 7.757812 -5.199219 L 1.769531 -5.199219 L 1.769531 -8.203125 L 8.28125 -8.203125 L 8.28125 -9.164062 L 0.714844 -9.164062 L 0.714844 0 z" stroke-linecap="round" />
</g>
		<g transform="matrix(0.12 0 0 0.12 4.02 14.88)"  >
<path style="stroke: none; stroke-width: 1; stroke-dasharray: none; stroke-linecap: butt; stroke-dashoffset: 0; stroke-linejoin: miter; stroke-miterlimit: 4; fill: rgb(255,255,255); fill-rule: nonzero; opacity: 1;" vector-effect="non-scaling-stroke"  transform=" translate(-4.26, 4.58)" d="M 0.714844 0 L 1.792969 0 L 1.792969 -4.121094 L 7.03125 -4.121094 L 7.03125 -5.054688 L 1.792969 -5.054688 L 1.792969 -8.203125 L 7.796875 -8.203125 L 7.796875 -9.164062 L 0.714844 -9.164062 L 0.714844 0 z" stroke-linecap="round" />
</g>
		<g transform="matrix(0.12 0 0 0.12 5.27 14.9)"  >
<path style="stroke: none; stroke-width: 1; stroke-dasharray: none; stroke-linecap: butt; stroke-dashoffset: 0; stroke-linejoin: miter; stroke-miterlimit: 4; fill: rgb(255,255,255); fill-rule: nonzero; opacity: 1;" vector-effect="non-scaling-stroke"  transform=" translate(-4.95, 4.42)" d="M 4.953125 0.324219 C 7.539062 0.324219 9.320312 -1.246094 9.320312 -3.808594 L 9.320312 -3.808594 L 9.320312 -9.164062 L 8.242188 -9.164062 L 8.242188 -3.796875 C 8.242188 -1.808594 6.925781 -0.648438 4.964844 -0.648438 C 2.988281 -0.648438 1.675781 -1.871094 1.675781 -3.796875 L 1.675781 -3.796875 L 1.675781 -9.164062 L 0.585938 -9.164062 L 0.585938 -3.808594 C 0.585938 -1.246094 2.367188 0.324219 4.953125 0.324219 z" stroke-linecap="round" />
</g>
		<g transform="matrix(0.12 0 0 0.12 6.59 14.88)"  >
<path style="stroke: none; stroke-width: 1; stroke-dasharray: none; stroke-linecap: butt; stroke-dashoffset: 0; stroke-linejoin: miter; stroke-miterlimit: 4; fill: rgb(255,255,255); fill-rule: nonzero; opacity: 1;" vector-effect="non-scaling-stroke"  transform=" translate(-4.36, 4.58)" d="M 3.820312 0 L 4.898438 0 L 4.898438 -8.203125 L 8.617188 -8.203125 L 8.617188 -9.164062 L 0.105469 -9.164062 L 0.105469 -8.203125 L 3.820312 -8.203125 L 3.820312 0 z" stroke-linecap="round" />
</g>
		<g transform="matrix(0.12 0 0 0.12 7.9 14.9)"  >
<path style="stroke: none; stroke-width: 1; stroke-dasharray: none; stroke-linecap: butt; stroke-dashoffset: 0; stroke-linejoin: miter; stroke-miterlimit: 4; fill: rgb(255,255,255); fill-rule: nonzero; opacity: 1;" vector-effect="non-scaling-stroke"  transform=" translate(-4.95, 4.42)" d="M 4.953125 0.324219 C 7.539062 0.324219 9.320312 -1.246094 9.320312 -3.808594 L 9.320312 -3.808594 L 9.320312 -9.164062 L 8.242188 -9.164062 L 8.242188 -3.796875 C 8.242188 -1.808594 6.925781 -0.648438 4.964844 -0.648438 C 2.988281 -0.648438 1.675781 -1.871094 1.675781 -3.796875 L 1.675781 -3.796875 L 1.675781 -9.164062 L 0.585938 -9.164062 L 0.585938 -3.808594 C 0.585938 -1.246094 2.367188 0.324219 4.953125 0.324219 z" stroke-linecap="round" />
</g>
		<g transform="matrix(0.12 0 0 0.12 9.35 14.89)"  >
<path style="stroke: none; stroke-width: 1; stroke-dasharray: none; stroke-linecap: butt; stroke-dashoffset: 0; stroke-linejoin: miter; stroke-miterlimit: 4; fill: rgb(255,255,255); fill-rule: nonzero; opacity: 1;" vector-effect="non-scaling-stroke"  transform=" translate(-5.48, 4.45)" d="M 8.722656 0.261719 C 9.371094 0.261719 9.890625 -0.105469 10.253906 -0.609375 L 10.253906 -0.609375 L 9.710938 -1.246094 C 9.5 -0.882812 9.203125 -0.648438 8.902344 -0.648438 C 8.589844 -0.648438 8.410156 -0.898438 8.304688 -1.222656 L 8.304688 -1.222656 L 7.757812 -2.792969 C 7.566406 -3.339844 7.253906 -3.78125 6.757812 -4.042969 L 6.757812 -4.042969 L 6.757812 -4.054688 C 8.355469 -4.222656 9.371094 -5.199219 9.371094 -6.523438 C 9.371094 -8.097656 8.046875 -9.164062 6.097656 -9.164062 L 6.097656 -9.164062 L 0.714844 -9.164062 L 0.714844 0 L 1.792969 0 L 1.792969 -3.835938 L 5.238281 -3.835938 C 5.886719 -3.835938 6.40625 -3.367188 6.65625 -2.691406 L 6.65625 -2.691406 L 7.316406 -0.84375 C 7.539062 -0.207031 7.980469 0.261719 8.722656 0.261719 z M 1.792969 -4.796875 L 1.792969 -8.203125 L 6.058594 -8.203125 C 7.382812 -8.203125 8.292969 -7.511719 8.292969 -6.484375 C 8.292969 -5.484375 7.382812 -4.796875 6.058594 -4.796875 z" stroke-linecap="round" />
</g>
		<g transform="matrix(0.12 0 0 0.12 10.67 14.88)"  >
<path style="stroke: none; stroke-width: 1; stroke-dasharray: none; stroke-linecap: butt; stroke-dashoffset: 0; stroke-linejoin: miter; stroke-miterlimit: 4; fill: rgb(255,255,255); fill-rule: nonzero; opacity: 1;" vector-effect="non-scaling-stroke"  transform=" translate(-4.56, 4.58)" d="M 0.714844 0 L 8.410156 0 L 8.410156 -0.960938 L 1.769531 -0.960938 L 1.769531 -4.261719 L 7.757812 -4.261719 L 7.757812 -5.199219 L 1.769531 -5.199219 L 1.769531 -8.203125 L 8.28125 -8.203125 L 8.28125 -9.164062 L 0.714844 -9.164062 L 0.714844 0 z" stroke-linecap="round" />
</g>
</g>
</g>
</svg>