<?xml version="1.0" encoding="UTF-8" standalone="no" ?>
<!DOCTYPE svg PUBLIC "-//W3C//DTD SVG 1.1//EN" "http://www.w3.org/Graphics/SVG/1.1/DTD/svg11.dtd">
<svg xmlns="http://www.w3.org/2000/svg" viewBox="0 0 1024 1024"><path fill="#b19777" d="M515.634 37c-.326.825-22.45 69.225-49.164 152-26.714 82.775-53.063 164.336-58.555 181.247l-9.985 30.748-194.215.252L9.5 401.5l154.975 113c85.237 62.15 155.94 113.9 157.118 115l2.143 2L267.903 804c-30.708 94.875-57.355 177.299-59.217 183.165l-3.383 10.664 8.598-6.296c155.385-113.78 302.631-220.346 303.507-219.656 6.468 5.091 308.934 225.114 309.157 224.891.167-.167-26.217-82.409-58.631-182.76-32.414-100.351-58.933-182.693-58.931-182.982.001-.289 70.672-52.051 157.046-115.026l157.045-114.5-194.297-.254-194.297-.255-55.433-171.745C514.928 30.528 516.413 35.03 515.634 37" fill-rule="evenodd"/></svg>